<?xml version="1.0" encoding="utf-8"?>
<!-- Generator: Adobe Illustrator 25.4.1, SVG Export Plug-In . SVG Version: 6.00 Build 0)  -->
<svg version="1.1" id="レイヤー_1" xmlns="http://www.w3.org/2000/svg" xmlns:xlink="http://www.w3.org/1999/xlink" x="0px"
	 y="0px" viewBox="0 0 256 256" style="enable-background:new 0 0 256 256;" xml:space="preserve">
<style type="text/css">
	.st0{fill:#ED807F;}
	.st1{fill:#EB8180;}
	.st2{fill:#F8CCC4;}
</style>
<g>
	<g>
		<path class="st0" d="M232.7,237.5c4.6,0,9.1-2.1,12-6c4.9-6.6,3.6-16-3.1-20.9l-39.4-29.3l-15.2,26l36.7,27.3
			C226.4,236.6,229.6,237.5,232.7,237.5z"/>
		<path class="st1" d="M186.5,189.8c-1.3,0-2.7-0.4-3.8-1.3l-78.5-59c-2.1-1.6-3-4.3-2.3-6.8c0.7-2.5,2.9-4.4,5.5-4.7l44.9-4.6
			c3.6-0.4,6.7,2.2,7,5.7c0.4,3.5-2.2,6.7-5.7,7l-28.6,2.9l65.4,49.1c2.8,2.1,3.4,6.1,1.3,9C190.4,188.9,188.4,189.8,186.5,189.8z"
			/>
		<path class="st2" d="M117.4,237c-19.1,0-38-5.1-54.9-14.9c-25.2-14.7-43.2-38.4-50.6-66.6C-3.3,97.2,31.6,37.4,89.9,22.1
			C148.1,6.8,208,41.7,223.3,100l0,0c15.3,58.2-19.6,118.1-77.9,133.4C136.1,235.8,126.7,237,117.4,237z M117.6,44.1
			c-7,0-14.1,0.9-21.2,2.8C51.8,58.6,25,104.4,36.8,149c5.7,21.6,19.4,39.7,38.7,51c19.3,11.3,41.8,14.3,63.4,8.7
			c44.6-11.7,71.3-57.5,59.6-102.1C188.6,69,154.7,44.1,117.6,44.1z"/>
		<path class="st1" d="M169.4,124.8c-0.1,0-0.2,0-0.3,0c-4-0.2-7.1-3.5-6.9-7.5c0,0,0,0,0,0c0.2-3.9,3.5-7,7.5-6.9
			c4,0.2,7.1,3.5,6.9,7.5C176.4,121.8,173.2,124.8,169.4,124.8z"/>
		<path class="st1" d="M186.5,123.2c-0.1,0-0.2,0-0.3,0c-4-0.2-7.1-3.5-6.9-7.5c0,0,0,0,0,0c0.2-3.9,3.5-7,7.5-6.9
			c1.9,0.1,3.7,0.9,5,2.3c1.3,1.4,2,3.3,1.9,5.2C193.5,120.2,190.3,123.2,186.5,123.2z"/>
	</g>
</g>
</svg>
